<svg class="main-svg" xmlns="http://www.w3.org/2000/svg" xmlns:xlink="http://www.w3.org/1999/xlink" width="800" height="400" style="" viewBox="0 0 800 400"><rect x="0" y="0" width="800" height="400" style="fill: rgb(255, 255, 255); fill-opacity: 1;"/><defs id="defs-41d166"><g class="clips"><clipPath id="clip41d166xyplot" class="plotclip"><rect width="486.4" height="220"/></clipPath><clipPath id="clip41d166x2y2plot" class="plotclip"><rect width="121.59999999999997" height="220"/></clipPath><clipPath class="axesclip" id="clip41d166x"><rect x="80" y="0" width="486.4" height="400"/></clipPath><clipPath class="axesclip" id="clip41d166y"><rect x="0" y="100" width="800" height="220"/></clipPath><clipPath class="axesclip" id="clip41d166xy"><rect x="80" y="100" width="486.4" height="220"/></clipPath><clipPath class="axesclip" id="clip41d166y2"><rect x="0" y="100" width="800" height="220"/></clipPath><clipPath class="axesclip" id="clip41d166xy2"><rect x="80" y="100" width="486.4" height="220"/></clipPath><clipPath class="axesclip" id="clip41d166x2"><rect x="598.4000000000001" y="0" width="121.59999999999997" height="400"/></clipPath><clipPath class="axesclip" id="clip41d166x2y"><rect x="598.4000000000001" y="100" width="121.59999999999997" height="220"/></clipPath><clipPath class="axesclip" id="clip41d166x2y2"><rect x="598.4000000000001" y="100" width="121.59999999999997" height="220"/></clipPath></g><g class="gradients"/><g class="patterns"/></defs><g class="bglayer"/><g class="layer-below"><g class="imagelayer"/><g class="shapelayer"/></g><g class="cartesianlayer"><g class="subplot xy"><g class="layer-subplot"><g class="shapelayer"/><g class="imagelayer"/></g><g class="gridlayer"><g class="x"/><g class="y"/></g><g class="zerolinelayer"/><path class="xlines-below"/><path class="ylines-below"/><g class="overlines-below"/><g class="xaxislayer-below"/><g class="yaxislayer-below"/><g class="overaxes-below"/><g class="plot" transform="translate(80,100)" clip-path="url(#clip41d166xyplot)"><g class="scatterlayer mlayer"><g class="trace scatter trace6c1738" style="stroke-miterlimit: 2;"><g class="fills"><g><path class="js-fill" d="M9.54,209L22.26,209L22.28,91.5L35.1,91.49L35.12,90.47L39.73,90.47L39.75,35.21L90.3,35.21L90.32,27.94L90.99,27.94L91,27.12L91.84,27.12L91.86,14.37L93.1,14.37L93.1,14.37L91.86,14.37L91.84,27.12L85.93,27.18L85.91,27.91L75.8,28.01L75.78,29.09L57.36,29.09L57.34,33.5L47.32,33.5L47.3,34.22L34.83,34.61L34.81,35L18.98,35.6L18.96,36.54L14.38,36.54L14.36,91.03L11.81,91.03L11.79,93.15L11.35,93.15L11.33,209L9.54,209Z" style="fill: rgb(141, 215, 210); fill-opacity: 0.5; stroke-width: 0;"/></g></g><g class="errorbars"/><g class="lines"><path class="js-line" d="M9.54,209L11.33,209L11.35,93.15L11.79,93.15L11.81,91.03L14.36,91.03L14.38,36.54L18.96,36.54L18.98,35.6L34.81,35L34.83,34.61L47.3,34.22L47.32,33.5L57.34,33.5L57.36,29.09L75.78,29.09L75.8,28.01L85.91,27.91L85.93,27.18L91.84,27.12L91.86,14.37L93.1,14.37" style="vector-effect: non-scaling-stroke; fill: none; stroke: rgb(141, 215, 210); stroke-opacity: 1; stroke-width: 2px; opacity: 1;"/></g><g class="points"/><g class="text"/></g><g class="trace scatter trace491374" style="stroke-miterlimit: 2;"><g class="fills"/><g class="errorbars"/><g class="lines"><path class="js-line" d="M9.54,209L22.26,209L22.28,91.5L35.1,91.49L35.12,90.47L39.73,90.47L39.75,35.21L90.3,35.21L90.32,27.94L90.99,27.94L91,27.12L91.84,27.12L91.86,14.37L93.1,14.37" style="vector-effect: non-scaling-stroke; fill: none; stroke: rgb(141, 215, 210); stroke-opacity: 1; stroke-width: 2px; opacity: 1;"/></g><g class="points"/><g class="text"/></g><g class="trace scatter trace8d7388" style="stroke-miterlimit: 2;"><g class="fills"><g><path class="js-fill" d="M9.54,209L31.36,209L31.38,93.16L41.43,93.16L41.45,91.21L227.22,91.21L227.23,76.68L330.94,76.68L330.96,34.38L367.36,34.38L367.38,28.01L396.02,27.5L396.04,27.17L407.05,27.17L407.07,21.62L413.54,21.62L413.55,14.89L3390.82,11L3390.82,11L355.68,12.72L355.66,13.91L216.84,14.37L216.82,15.2L192.31,15.2L192.29,22.14L187.01,22.14L186.99,29.32L161.64,29.32L161.62,34.19L158.38,34.19L158.36,35.91L24.55,35.91L24.53,93.16L17.3,93.16L17.28,182.96L10.2,182.96L10.19,209L9.54,209Z" style="fill: rgb(40, 40, 122); fill-opacity: 0.5; stroke-width: 0;"/></g></g><g class="errorbars"/><g class="lines"><path class="js-line" d="M9.54,209L10.19,209L10.2,182.96L17.28,182.96L17.3,93.16L24.53,93.16L24.55,35.91L158.36,35.91L158.38,34.19L161.62,34.19L161.64,29.32L186.99,29.32L187.01,22.14L192.29,22.14L192.31,15.2L216.82,15.2L216.84,14.37L355.66,13.91L355.68,12.72L3390.82,11" style="vector-effect: non-scaling-stroke; fill: none; stroke: rgb(40, 40, 122); stroke-opacity: 1; stroke-width: 2px; opacity: 1;"/></g><g class="points"/><g class="text"/></g><g class="trace scatter trace15447e" style="stroke-miterlimit: 2;"><g class="fills"/><g class="errorbars"/><g class="lines"><path class="js-line" d="M9.54,209L31.36,209L31.38,93.16L41.43,93.16L41.45,91.21L227.22,91.21L227.23,76.68L330.94,76.68L330.96,34.38L367.36,34.38L367.38,28.01L396.02,27.5L396.04,27.17L407.05,27.17L407.07,21.62L413.54,21.62L413.55,14.89L3390.82,11" style="vector-effect: non-scaling-stroke; fill: none; stroke: rgb(40, 40, 122); stroke-opacity: 1; stroke-width: 2px; opacity: 1;"/></g><g class="points"/><g class="text"/></g></g></g><g class="overplot"/><path class="xlines-above crisp" d="M79,320.5H566.4" style="fill: none; stroke-width: 1px; stroke: rgb(36, 36, 36); stroke-opacity: 1;"/><path class="ylines-above crisp" d="M79.5,100V320" style="fill: none; stroke-width: 1px; stroke: rgb(36, 36, 36); stroke-opacity: 1;"/><g class="overlines-above"/><g class="xaxislayer-above"><path class="xtick ticks crisp" d="M0,321v5" transform="translate(89.53999999999999,0)" style="stroke: rgb(68, 68, 68); stroke-opacity: 1; stroke-width: 1px;"/><path class="xtick ticks crisp" d="M0,321v5" transform="translate(184.91,0)" style="stroke: rgb(68, 68, 68); stroke-opacity: 1; stroke-width: 1px;"/><path class="xtick ticks crisp" d="M0,321v5" transform="translate(280.28,0)" style="stroke: rgb(68, 68, 68); stroke-opacity: 1; stroke-width: 1px;"/><path class="xtick ticks crisp" d="M0,321v5" transform="translate(375.65,0)" style="stroke: rgb(68, 68, 68); stroke-opacity: 1; stroke-width: 1px;"/><path class="xtick ticks crisp" d="M0,321v5" transform="translate(471.03,0)" style="stroke: rgb(68, 68, 68); stroke-opacity: 1; stroke-width: 1px;"/><path class="xtick ticks crisp" d="M0,321v5" transform="translate(566.4,0)" style="stroke: rgb(68, 68, 68); stroke-opacity: 1; stroke-width: 1px;"/><g class="xtick"><text text-anchor="middle" x="0" y="340.4" transform="translate(89.53999999999999,0)" style="font-family: 'Open Sans', verdana, arial, sans-serif; font-size: 12px; fill: rgb(36, 36, 36); fill-opacity: 1; white-space: pre; opacity: 1;">0</text></g><g class="xtick"><text text-anchor="middle" x="0" y="340.4" style="font-family: 'Open Sans', verdana, arial, sans-serif; font-size: 12px; fill: rgb(36, 36, 36); fill-opacity: 1; white-space: pre; opacity: 1;" transform="translate(184.91,0)">5k</text></g><g class="xtick"><text text-anchor="middle" x="0" y="340.4" style="font-family: 'Open Sans', verdana, arial, sans-serif; font-size: 12px; fill: rgb(36, 36, 36); fill-opacity: 1; white-space: pre; opacity: 1;" transform="translate(280.28,0)">10k</text></g><g class="xtick"><text text-anchor="middle" x="0" y="340.4" style="font-family: 'Open Sans', verdana, arial, sans-serif; font-size: 12px; fill: rgb(36, 36, 36); fill-opacity: 1; white-space: pre; opacity: 1;" transform="translate(375.65,0)">15k</text></g><g class="xtick"><text text-anchor="middle" x="0" y="340.4" style="font-family: 'Open Sans', verdana, arial, sans-serif; font-size: 12px; fill: rgb(36, 36, 36); fill-opacity: 1; white-space: pre; opacity: 1;" transform="translate(471.03,0)">20k</text></g><g class="xtick"><text text-anchor="middle" x="0" y="340.4" style="font-family: 'Open Sans', verdana, arial, sans-serif; font-size: 12px; fill: rgb(36, 36, 36); fill-opacity: 1; white-space: pre; opacity: 1;" transform="translate(566.4,0)">25k</text></g></g><g class="yaxislayer-above"><path class="ytick ticks crisp" d="M79,0h-5" transform="translate(0,309)" style="stroke: rgb(68, 68, 68); stroke-opacity: 1; stroke-width: 1px;"/><path class="ytick ticks crisp" d="M79,0h-5" transform="translate(0,256.35)" style="stroke: rgb(68, 68, 68); stroke-opacity: 1; stroke-width: 1px;"/><path class="ytick ticks crisp" d="M79,0h-5" transform="translate(0,203.70999999999998)" style="stroke: rgb(68, 68, 68); stroke-opacity: 1; stroke-width: 1px;"/><path class="ytick ticks crisp" d="M79,0h-5" transform="translate(0,151.06)" style="stroke: rgb(68, 68, 68); stroke-opacity: 1; stroke-width: 1px;"/><g class="ytick"><text text-anchor="end" x="71.6" y="4.199999999999999" transform="translate(0,309)" style="font-family: 'Open Sans', verdana, arial, sans-serif; font-size: 12px; fill: rgb(36, 36, 36); fill-opacity: 1; white-space: pre; opacity: 1;">0</text></g><g class="ytick"><text text-anchor="end" x="71.6" y="4.199999999999999" style="font-family: 'Open Sans', verdana, arial, sans-serif; font-size: 12px; fill: rgb(36, 36, 36); fill-opacity: 1; white-space: pre; opacity: 1;" transform="translate(0,256.35)">0.1</text></g><g class="ytick"><text text-anchor="end" x="71.6" y="4.199999999999999" style="font-family: 'Open Sans', verdana, arial, sans-serif; font-size: 12px; fill: rgb(36, 36, 36); fill-opacity: 1; white-space: pre; opacity: 1;" transform="translate(0,203.70999999999998)">0.2</text></g><g class="ytick"><text text-anchor="end" x="71.6" y="4.199999999999999" style="font-family: 'Open Sans', verdana, arial, sans-serif; font-size: 12px; fill: rgb(36, 36, 36); fill-opacity: 1; white-space: pre; opacity: 1;" transform="translate(0,151.06)">0.3</text></g></g><g class="overaxes-above"/></g><g class="subplot x2y2"><g class="layer-subplot"><g class="shapelayer"/><g class="imagelayer"/></g><g class="gridlayer"><g class="x2"/><g class="y2"/></g><g class="zerolinelayer"/><path class="xlines-below"/><path class="ylines-below"/><g class="overlines-below"/><g class="xaxislayer-below"/><g class="yaxislayer-below"/><g class="overaxes-below"/><g class="plot" transform="translate(598.4000000000001,100)" clip-path="url(#clip41d166x2y2plot)"><g class="scatterlayer mlayer"><g class="trace scatter traced98d38" style="stroke-miterlimit: 2;"><g class="fills"><g><path class="js-fill" d="M-2431.999999999999,209L-2431.999999999999,51.62090566883247L-2211.18,12.85L-2211.17,12.85L-17.85,11L-17.83,11L121.57,11L121.57,11L-992.14,11L-992.15,11L-2431.999999999999,14.610822849431866L-2431.999999999999,209Z" style="fill: rgb(40, 40, 122); fill-opacity: 0.5; stroke-width: 0;"/></g></g><g class="errorbars"/><g class="lines"><path class="js-line" d="M-2431.999999999999,209L-2431.999999999999,14.610822849431866L-992.15,11L-992.14,11L121.57,11" style="vector-effect: non-scaling-stroke; fill: none; stroke: rgb(40, 40, 122); stroke-opacity: 1; stroke-width: 2px; opacity: 1;"/></g><g class="points"/><g class="text"/></g><g class="trace scatter trace0379cf" style="stroke-miterlimit: 2;"><g class="fills"/><g class="errorbars"/><g class="lines"><path class="js-line" d="M-2431.999999999999,209L-2431.999999999999,51.62090566883247L-2211.18,12.85L-2211.17,12.85L-17.85,11L-17.83,11L121.57,11" style="vector-effect: non-scaling-stroke; fill: none; stroke: rgb(40, 40, 122); stroke-opacity: 1; stroke-width: 2px; opacity: 1;"/></g><g class="points"/><g class="text"/></g></g></g><g class="overplot"/><path class="xlines-above crisp" d="M598.4000000000001,320.5H720" style="fill: none; stroke-width: 1px; stroke: rgb(36, 36, 36); stroke-opacity: 1;"/><path class="ylines-above crisp" d="M0,0" style="fill: none;"/><g class="overlines-above"/><g class="xaxislayer-above"><path class="x2tick ticks crisp" d="M0,321v5" transform="translate(598.4000000000001,0)" style="stroke: rgb(68, 68, 68); stroke-opacity: 1; stroke-width: 1px;"/><path class="x2tick ticks crisp" d="M0,321v5" transform="translate(682.0400000000001,0)" style="stroke: rgb(68, 68, 68); stroke-opacity: 1; stroke-width: 1px;"/><g class="x2tick"><text text-anchor="middle" x="0" y="340.4" transform="translate(598.4000000000001,0)" style="font-family: 'Open Sans', verdana, arial, sans-serif; font-size: 12px; fill: rgb(36, 36, 36); fill-opacity: 1; white-space: pre; opacity: 1;">170k</text></g><g class="x2tick"><text text-anchor="middle" x="0" y="340.4" style="font-family: 'Open Sans', verdana, arial, sans-serif; font-size: 12px; fill: rgb(36, 36, 36); fill-opacity: 1; white-space: pre; opacity: 1;" transform="translate(682.0400000000001,0)">175k</text></g></g><g class="yaxislayer-above"/><g class="overaxes-above"/></g></g><g class="polarlayer"/><g class="smithlayer"/><g class="ternarylayer"/><g class="geolayer"/><g class="funnelarealayer"/><g class="pielayer"/><g class="iciclelayer"/><g class="treemaplayer"/><g class="sunburstlayer"/><g class="glimages"/><defs id="topdefs-41d166"><g class="clips"/><clipPath id="legend41d166"><rect width="102" height="48" x="0" y="0"/></clipPath></defs><g class="layer-above"><g class="imagelayer"/><g class="shapelayer"/></g><g class="infolayer"><g class="legend" pointer-events="all" transform="translate(611.6,269.8)"><rect class="bg" shape-rendering="crispEdges" width="102" height="48" x="0" y="0" style="stroke: rgb(68, 68, 68); stroke-opacity: 1; fill: rgb(255, 255, 255); fill-opacity: 1; stroke-width: 0px;"/><g class="scrollbox" transform="" clip-path="url(#legend41d166)"><g class="groups"><g class="traces" transform="translate(0,14.5)" style="opacity: 1;"><text class="legendtext" text-anchor="start" x="40" y="4.680000000000001" style="font-family: 'Open Sans', verdana, arial, sans-serif; font-size: 12px; fill: rgb(36, 36, 36); fill-opacity: 1; white-space: pre;">gcSwarms</text><g class="layers"><g class="legendfill"><path class="js-fill" d="M5,-2h30v6h-30z" style="stroke-width: 0; fill: rgb(40, 40, 122); fill-opacity: 0.5;"/></g><g class="legendlines"><path class="js-line" d="M5,-2h30" style="fill: none; stroke: rgb(40, 40, 122); stroke-opacity: 1; stroke-width: 2px;"/></g><g class="legendsymbols"><g class="legendpoints"/></g></g><rect class="legendtoggle" x="0" y="-9.5" width="96.015625" height="19" style="fill: rgb(0, 0, 0); fill-opacity: 0;"/></g><g class="traces" transform="translate(0,33.5)" style="opacity: 1;"><text class="legendtext" text-anchor="start" x="40" y="4.680000000000001" style="font-family: 'Open Sans', verdana, arial, sans-serif; font-size: 12px; fill: rgb(36, 36, 36); fill-opacity: 1; white-space: pre;">ML4SD</text><g class="layers"><g class="legendfill"><path class="js-fill" d="M5,-2h30v6h-30z" style="stroke-width: 0; fill: rgb(141, 215, 210); fill-opacity: 0.5;"/></g><g class="legendlines"><path class="js-line" d="M5,-2h30" style="fill: none; stroke: rgb(141, 215, 210); stroke-opacity: 1; stroke-width: 2px;"/></g><g class="legendsymbols"><g class="legendpoints"/></g></g><rect class="legendtoggle" x="0" y="-9.5" width="96.015625" height="19" style="fill: rgb(0, 0, 0); fill-opacity: 0;"/></g></g></g><rect class="scrollbar" rx="20" ry="3" width="0" height="0" x="0" y="0" style="fill: rgb(128, 139, 164); fill-opacity: 1;"/></g><g class="g-gtitle"/><g class="g-xtitle"><text class="xtitle" x="323.2" y="368.20625" text-anchor="middle" style="font-family: 'Open Sans', verdana, arial, sans-serif; font-size: 14px; fill: rgb(36, 36, 36); opacity: 1; font-weight: normal; white-space: pre;">Number of searched designs</text></g><g class="g-x2title"/><g class="g-ytitle"><g class="ytitle-math-group" pointer-events="none" data-unformatted="$Best\ C_Y$" data-math="Y" transform="rotate(-90,30.106250000000003,210)translate(-26.2978515625,-9.87553882598877)"><svg xmlns:xlink="http://www.w3.org/1999/xlink" width="8.506ex" height="16.03125" viewBox="0 -805.1 3662.4 1074.8" role="img" focusable="false" aria-hidden="true" style="vertical-align: -0.626ex; overflow: visible; pointer-events: none;" class="ytitle-math" preserveAspectRatio="xMinYMin meet" x="30.106250000000003" y="210"><defs id="MathJax_SVG_glyphs"><path stroke-width="1" id="MJMATHI-42" d="M231 637Q204 637 199 638T194 649Q194 676 205 682Q206 683 335 683Q594 683 608 681Q671 671 713 636T756 544Q756 480 698 429T565 360L555 357Q619 348 660 311T702 219Q702 146 630 78T453 1Q446 0 242 0Q42 0 39 2Q35 5 35 10Q35 17 37 24Q42 43 47 45Q51 46 62 46H68Q95 46 128 49Q142 52 147 61Q150 65 219 339T288 628Q288 635 231 637ZM649 544Q649 574 634 600T585 634Q578 636 493 637Q473 637 451 637T416 636H403Q388 635 384 626Q382 622 352 506Q352 503 351 500L320 374H401Q482 374 494 376Q554 386 601 434T649 544ZM595 229Q595 273 572 302T512 336Q506 337 429 337Q311 337 310 336Q310 334 293 263T258 122L240 52Q240 48 252 48T333 46Q422 46 429 47Q491 54 543 105T595 229Z"/><path stroke-width="1" id="MJMATHI-65" d="M39 168Q39 225 58 272T107 350T174 402T244 433T307 442H310Q355 442 388 420T421 355Q421 265 310 237Q261 224 176 223Q139 223 138 221Q138 219 132 186T125 128Q125 81 146 54T209 26T302 45T394 111Q403 121 406 121Q410 121 419 112T429 98T420 82T390 55T344 24T281 -1T205 -11Q126 -11 83 42T39 168ZM373 353Q367 405 305 405Q272 405 244 391T199 357T170 316T154 280T149 261Q149 260 169 260Q282 260 327 284T373 353Z"/><path stroke-width="1" id="MJMATHI-73" d="M131 289Q131 321 147 354T203 415T300 442Q362 442 390 415T419 355Q419 323 402 308T364 292Q351 292 340 300T328 326Q328 342 337 354T354 372T367 378Q368 378 368 379Q368 382 361 388T336 399T297 405Q249 405 227 379T204 326Q204 301 223 291T278 274T330 259Q396 230 396 163Q396 135 385 107T352 51T289 7T195 -10Q118 -10 86 19T53 87Q53 126 74 143T118 160Q133 160 146 151T160 120Q160 94 142 76T111 58Q109 57 108 57T107 55Q108 52 115 47T146 34T201 27Q237 27 263 38T301 66T318 97T323 122Q323 150 302 164T254 181T195 196T148 231Q131 256 131 289Z"/><path stroke-width="1" id="MJMATHI-74" d="M26 385Q19 392 19 395Q19 399 22 411T27 425Q29 430 36 430T87 431H140L159 511Q162 522 166 540T173 566T179 586T187 603T197 615T211 624T229 626Q247 625 254 615T261 596Q261 589 252 549T232 470L222 433Q222 431 272 431H323Q330 424 330 420Q330 398 317 385H210L174 240Q135 80 135 68Q135 26 162 26Q197 26 230 60T283 144Q285 150 288 151T303 153H307Q322 153 322 145Q322 142 319 133Q314 117 301 95T267 48T216 6T155 -11Q125 -11 98 4T59 56Q57 64 57 83V101L92 241Q127 382 128 383Q128 385 77 385H26Z"/><path stroke-width="1" id="MJMATHI-43" d="M50 252Q50 367 117 473T286 641T490 704Q580 704 633 653Q642 643 648 636T656 626L657 623Q660 623 684 649Q691 655 699 663T715 679T725 690L740 705H746Q760 705 760 698Q760 694 728 561Q692 422 692 421Q690 416 687 415T669 413H653Q647 419 647 422Q647 423 648 429T650 449T651 481Q651 552 619 605T510 659Q484 659 454 652T382 628T299 572T226 479Q194 422 175 346T156 222Q156 108 232 58Q280 24 350 24Q441 24 512 92T606 240Q610 253 612 255T628 257Q648 257 648 248Q648 243 647 239Q618 132 523 55T319 -22Q206 -22 128 53T50 252Z"/><path stroke-width="1" id="MJMATHI-59" d="M66 637Q54 637 49 637T39 638T32 641T30 647T33 664T42 682Q44 683 56 683Q104 680 165 680Q288 680 306 683H316Q322 677 322 674T320 656Q316 643 310 637H298Q242 637 242 624Q242 619 292 477T343 333L346 336Q350 340 358 349T379 373T411 410T454 461Q546 568 561 587T577 618Q577 634 545 637Q528 637 528 647Q528 649 530 661Q533 676 535 679T549 683Q551 683 578 682T657 680Q684 680 713 681T746 682Q763 682 763 673Q763 669 760 657T755 643Q753 637 734 637Q662 632 617 587Q608 578 477 424L348 273L322 169Q295 62 295 57Q295 46 363 46Q379 46 384 45T390 35Q390 33 388 23Q384 6 382 4T366 1Q361 1 324 1T232 2Q170 2 138 2T102 1Q84 1 84 9Q84 14 87 24Q88 27 89 30T90 35T91 39T93 42T96 44T101 45T107 45T116 46T129 46Q168 47 180 50T198 63Q201 68 227 171L252 274L129 623Q128 624 127 625T125 627T122 629T118 631T113 633T105 634T96 635T83 636T66 637Z"/></defs><g stroke="rgb(36, 36, 36)" fill="rgb(36, 36, 36)" stroke-width="0" transform="matrix(1 0 0 -1 0 0)"><use xlink:href="#MJMATHI-42" x="0" y="0"/><use xlink:href="#MJMATHI-65" x="759" y="0"/><use xlink:href="#MJMATHI-73" x="1226" y="0"/><use xlink:href="#MJMATHI-74" x="1695" y="0"/><g transform="translate(2307,0)"><use xlink:href="#MJMATHI-43" x="0" y="0"/><use transform="scale(0.707)" xlink:href="#MJMATHI-59" x="1011" y="-213"/></g></g></svg></g></g><g class="g-y2title"/></g></svg>